<?xml version="1.0" standalone="no"?>
<!DOCTYPE svg PUBLIC "-//W3C//DTD SVG 20010904//EN"
 "http://www.w3.org/TR/2001/REC-SVG-20010904/DTD/svg10.dtd">
<svg version="1.0" xmlns="http://www.w3.org/2000/svg"
 width="463.000000pt" height="463.000000pt" viewBox="0 0 463.000000 463.000000"
 preserveAspectRatio="xMidYMid meet">
<metadata>
Created by potrace 1.11, written by Peter Selinger 2001-2013
</metadata>
<g transform="translate(0.000000,463.000000) scale(0.100000,-0.100000)"
fill="#000000" stroke="none">
<path d="M1733 2799 c-132 -68 -307 -160 -428 -224 -44 -23 -133 -70 -197
-104 l-118 -61 -57 51 c-32 29 -74 66 -93 83 -57 52 -57 52 -103 3 -23 -25
-130 -136 -237 -247 -107 -112 -221 -230 -253 -264 -33 -33 -102 -105 -154
-158 l-95 -98 2318 0 2318 0 -44 47 c-25 26 -49 52 -55 59 -5 6 -44 47 -85 91
-41 43 -102 108 -135 143 -63 66 -77 75 -475 263 -41 19 -129 61 -195 92 -66
32 -160 77 -210 100 -49 23 -130 61 -179 85 -51 24 -98 40 -110 37 -11 -2 -93
-26 -181 -52 -332 -98 -461 -136 -480 -140 -12 -3 -46 -13 -77 -24 l-55 -19
-134 105 c-74 57 -143 112 -154 121 -11 9 -64 52 -117 94 l-97 78 -118 -61z"/>
</g>
</svg>
